# xmcd CD database file
#
# Track frame offsets:
#	150
#	37485
#	61630
#	92520
#	120020
#	148890
#	176550
#	202645
#
# Disc length: 3139 seconds
#
# Revision: 0
# Processed by: cddbd v1.5.1PL0 Copyright (c) Steve Scherf et al.
# Submitted via: CDex 1.51
#
DISCID=620c4108
DTITLE=Tim Solook - Ability
DYEAR=2005
DGENRE=Jazz
TTITLE0=Homecoming
TTITLE1=Lisa's touch
TTITLE2=Delta Autumn
TTITLE3=Ability
TTITLE4=Slow Season
TTITLE5=Playing With Sirens
TTITLE6=Esojonas
TTITLE7=Bakers Blues
EXTD=YEAR: 2005
EXTT0=
EXTT1=
EXTT2=
EXTT3=
EXTT4=
EXTT5=
EXTT6=
EXTT7=
PLAYORDER=
